<svg
  viewBox="0 0 512 512"
  xmlns="http://www.w3.org/2000/svg"
  xmlns:xlink="http://www.w3.org/1999/xlink"
  style="enable-background:new 0 0 512 512;"
  xml:space="preserve"
>
  <title>South Tahoe Kayak and Paddleboard icon</title>
  <style>
    path { fill: #0683a7; }
    @media (prefers-color-scheme: dark) {
      path { fill: #f8f8f8; }
    }
  </style>
  <path d="m377.3 260.1c21 21.8 6.8 46.3 19.3 58.8s14.3 14.3 22.9 22.9 21-9 28.6-23.4c7.5-14.4 16.2-23.4 5.1-34.5-8.9-8.9-13-13-21.2-21.2s-27.2 5.1-36.5-4.2-4.2-4.2-6.4-6.2l-3.4-3.4c99.3-129.5 126.3-248.9 126.3-248.9s-119.4 27-248.9 126.2l-3.7-3.7c-26.5-26.5-8.2-46.8-20.9-59.4-12.6-12.6-14.3-14.3-22.9-22.9s-21 9-28.6 23.4c-7.5 14.4-16.2 23.4-5.1 34.5 8.9 8.9 13 13 21.2 21.2s27.2-5.1 36.5 4.2 7.3 7.1 11.9 11.6c-19.5 15.6-39.2 32.8-58.7 51.8-2 1.8-4 3.8-5.9 5.9-149.6 152.9-186.8 319.1-186.8 319.1s166.2-37.2 319.2-186.8c2.1-1.8 4-3.8 5.9-5.9 19.2-19.6 36.5-39.5 52.1-59.2zm31.4-156.8c14.1 14.1-7.9 60.6-51.9 116.6l-64.8-64.8c56.1-43.9 102.5-66 116.6-51.9zm-311.2 311.2c-20.1-20.1 33.2-106.1 119.1-192.1 21.9-21.9 43.8-41.6 64.6-58.6l67 67c-17 20.8-36.7 42.7-58.6 64.6-85.9 85.9-171.9 139.3-192.1 119.2z"/>
</svg>